<svg clip-rule="evenodd" fill-rule="evenodd" image-rendering="optimizeQuality" shape-rendering="geometricPrecision" text-rendering="geometricPrecision" version="1.1" viewBox="0 0 500 500" xmlns="http://www.w3.org/2000/svg"><path d="m-0.5-0.5h500v500h-500v-500z" fill="transparent"/><path d="m248.5 34.5c61.928 35.412 123.76 71.078 185.5 107 0.667 72 0.667 144 0 216-61.582 35.54-123.08 71.207-184.5 107-61.418-35.793-122.92-71.46-184.5-107-0.6667-72-0.6667-144 0-216 61.476-35.315 122.64-70.981 183.5-107z" fill="#1e88e5"/><path d="m248.5 45.5c58.527 33.85 117.03 67.85 175.5 102 0.667 68 0.667 136 0 204-58.249 33.874-116.42 67.874-174.5 102-58.085-34.126-116.25-68.126-174.5-102-0.6667-68-0.6667-136 0-204 58.143-33.648 115.98-67.648 173.5-102z"/><path d="m196.5 241.5c46.497 0.999 93.164 1.332 140 1v104h-175v-34h141v-36h-141v-105h176v35h-141v35z" fill="#fff"/><path d="m196.5 241.5h141v106c-58.836 0.332-117.5-1e-3 -176-1h175v-104c-46.836 0.332-93.503-1e-3 -140-1z" fill="#fff"/><path d="m161.5 276.5h141v36h-141c46.497-0.999 93.164-1.332 140-1v-34c-46.836 0.332-93.503-1e-3 -140-1z" fill="#fff"/></svg>